<svg width="600" height="400" viewBox="0 0 600 400" xmlns="http://www.w3.org/2000/svg">
  <defs>
    <linearGradient id="hotelGrad" x1="0%" y1="0%" x2="100%" y2="100%">
      <stop offset="0%" style="stop-color:#ff9a9e;stop-opacity:1" />
      <stop offset="100%" style="stop-color:#fecfef;stop-opacity:1" />
    </linearGradient>
  </defs>
  <rect width="600" height="400" fill="url(#hotelGrad)"/>
  <rect x="50" y="60" width="500" height="280" rx="15" fill="white" opacity="0.95"/>
  <rect x="70" y="80" width="460" height="50" rx="8" fill="#1976d2"/>
  <text x="300" y="110" text-anchor="middle" font-family="Arial, sans-serif" font-size="20" font-weight="bold" fill="white">Hotel Booking System</text>
  <rect x="80" y="150" width="200" height="120" rx="8" fill="#f8f9fa" stroke="#e0e0e0"/>
  <rect x="90" y="160" width="180" height="80" rx="4" fill="#e3f2fd"/>
  <text x="180" y="185" text-anchor="middle" font-family="Arial, sans-serif" font-size="14" font-weight="bold" fill="#1976d2">Deluxe Room</text>
  <text x="180" y="205" text-anchor="middle" font-family="Arial, sans-serif" font-size="12" fill="#666">$120/night</text>
  <rect x="90" y="245" width="80" height="20" rx="10" fill="#4caf50"/>
  <text x="130" y="258" text-anchor="middle" font-family="Arial, sans-serif" font-size="10" fill="white">Available</text>
  <rect x="320" y="150" width="200" height="120" rx="8" fill="#f8f9fa" stroke="#e0e0e0"/>
  <rect x="330" y="160" width="180" height="80" rx="4" fill="#fff3e0"/>
  <text x="420" y="185" text-anchor="middle" font-family="Arial, sans-serif" font-size="14" font-weight="bold" fill="#f57c00">Suite Room</text>
  <text x="420" y="205" text-anchor="middle" font-family="Arial, sans-serif" font-size="12" fill="#666">$250/night</text>
  <rect x="330" y="245" width="80" height="20" rx="10" fill="#ff5722"/>
  <text x="370" y="258" text-anchor="middle" font-family="Arial, sans-serif" font-size="10" fill="white">Booked</text>
  <rect x="70" y="290" width="460" height="30" rx="5" fill="#f5f5f5"/>
  <circle cx="90" cy="305" r="6" fill="#2196f3"/>
  <text x="110" y="310" font-family="Arial, sans-serif" font-size="11" fill="#333">Angular • ASP.NET Core • Entity Framework</text>
</svg>