<svg width="600" height="400" viewBox="0 0 600 400" xmlns="http://www.w3.org/2000/svg">
  <defs>
    <linearGradient id="taskGrad" x1="0%" y1="0%" x2="100%" y2="100%">
      <stop offset="0%" style="stop-color:#11998e;stop-opacity:1" />
      <stop offset="100%" style="stop-color:#38ef7d;stop-opacity:1" />
    </linearGradient>
  </defs>
  <rect width="600" height="400" fill="url(#taskGrad)"/>
  <rect x="70" y="70" width="460" height="260" rx="12" fill="white" opacity="0.95"/>
  <rect x="90" y="90" width="420" height="40" rx="6" fill="#00695c"/>
  <text x="300" y="115" text-anchor="middle" font-family="Arial, sans-serif" font-size="18" font-weight="bold" fill="white">Task Manager</text>
  <rect x="100" y="150" width="400" height="35" rx="6" fill="#f8f9fa" stroke="#e0e0e0"/>
  <circle cx="120" cy="167" r="8" fill="#4caf50"/>
  <path d="M116 167 L119 170 L124 163" stroke="white" stroke-width="2" fill="none"/>
  <text x="140" y="172" font-family="Arial, sans-serif" font-size="12" fill="#333">Complete project documentation</text>
  <text x="450" y="172" font-family="Arial, sans-serif" font-size="10" fill="#666">Today</text>
  <rect x="100" y="190" width="400" height="35" rx="6" fill="#fff3e0" stroke="#ffb74d"/>
  <circle cx="120" cy="207" r="8" fill="#ff9800"/>
  <text x="140" y="212" font-family="Arial, sans-serif" font-size="12" fill="#333">Review code changes</text>
  <text x="430" y="212" font-family="Arial, sans-serif" font-size="10" fill="#666">Tomorrow</text>
  <rect x="100" y="230" width="400" height="35" rx="6" fill="#f8f9fa" stroke="#e0e0e0"/>
  <circle cx="120" cy="247" r="8" fill="#9e9e9e"/>
  <text x="140" y="252" font-family="Arial, sans-serif" font-size="12" fill="#333">Setup testing environment</text>
  <text x="440" y="252" font-family="Arial, sans-serif" font-size="10" fill="#666">Next week</text>
  <rect x="90" y="280" width="420" height="30" rx="5" fill="#f5f5f5"/>
  <circle cx="110" cy="295" r="6" fill="#00bcd4"/>
  <text x="130" y="300" font-family="Arial, sans-serif" font-size="11" fill="#333">React • Node.js • Express</text>
</svg>