<svg width="600" height="400" viewBox="0 0 600 400" xmlns="http://www.w3.org/2000/svg">
  <defs>
    <linearGradient id="todoGrad" x1="0%" y1="0%" x2="100%" y2="100%">
      <stop offset="0%" style="stop-color:#a8edea;stop-opacity:1" />
      <stop offset="100%" style="stop-color:#fed6e3;stop-opacity:1" />
    </linearGradient>
  </defs>
  <rect width="600" height="400" fill="url(#todoGrad)"/>
  <rect x="120" y="80" width="360" height="240" rx="12" fill="white" opacity="0.95"/>
  <rect x="140" y="100" width="320" height="40" rx="6" fill="#6c5ce7"/>
  <text x="300" y="125" text-anchor="middle" font-family="Arial, sans-serif" font-size="18" font-weight="bold" fill="white">To Do List</text>
  <rect x="150" y="160" width="300" height="30" rx="5" fill="#dff0d8" stroke="#d6e9c6"/>
  <circle cx="170" cy="175" r="6" fill="#5cb85c"/>
  <path d="M167 175 L169 177 L173 171" stroke="white" stroke-width="2" fill="none"/>
  <text x="185" y="180" font-family="Arial, sans-serif" font-size="12" fill="#333">Buy groceries</text>
  <rect x="150" y="195" width="300" height="30" rx="5" fill="#f2dede" stroke="#ebccd1"/>
  <circle cx="170" cy="210" r="6" fill="#d9534f"/>
  <text x="185" y="215" font-family="Arial, sans-serif" font-size="12" fill="#333">Finish project report</text>
  <rect x="150" y="230" width="300" height="30" rx="5" fill="#fcf8e3" stroke="#faebcc"/>
  <circle cx="170" cy="245" r="6" fill="#f0ad4e"/>
  <text x="185" y="250" font-family="Arial, sans-serif" font-size="12" fill="#333">Call dentist</text>
  <rect x="150" y="265" width="300" height="30" rx="5" fill="#f8f9fa" stroke="#e0e0e0"/>
  <circle cx="170" cy="280" r="6" fill="#6c757d"/>
  <text x="185" y="285" font-family="Arial, sans-serif" font-size="12" fill="#333">Plan weekend trip</text>
  <circle cx="150" cy="340" r="6" fill="#fd79a8"/>
  <text x="170" y="345" font-family="Arial, sans-serif" font-size="11" fill="#333">HTML • CSS • JavaScript</text>
</svg>