<svg width="600" height="400" viewBox="0 0 600 400" xmlns="http://www.w3.org/2000/svg">
  <defs>
    <linearGradient id="trelloGrad" x1="0%" y1="0%" x2="100%" y2="100%">
      <stop offset="0%" style="stop-color:#0079bf;stop-opacity:1" />
      <stop offset="100%" style="stop-color:#026aa7;stop-opacity:1" />
    </linearGradient>
  </defs>
  <rect width="600" height="400" fill="url(#trelloGrad)"/>
  <rect x="50" y="70" width="500" height="260" rx="12" fill="white" opacity="0.95"/>
  <rect x="70" y="90" width="460" height="40" rx="6" fill="#0079bf"/>
  <text x="300" y="115" text-anchor="middle" font-family="Arial, sans-serif" font-size="18" font-weight="bold" fill="white">Project Board</text>
  <rect x="80" y="150" width="140" height="160" rx="8" fill="#f4f5f7"/>
  <rect x="85" y="155" width="130" height="25" rx="4" fill="#ddd"/>
  <text x="150" y="170" text-anchor="middle" font-family="Arial, sans-serif" font-size="12" font-weight="bold" fill="#333">To Do</text>
  <rect x="90" y="185" width="120" height="30" rx="4" fill="#fff" stroke="#ddd"/>
  <text x="150" y="203" text-anchor="middle" font-family="Arial, sans-serif" font-size="10" fill="#333">Setup Database</text>
  <rect x="90" y="220" width="120" height="30" rx="4" fill="#fff" stroke="#ddd"/>
  <text x="150" y="238" text-anchor="middle" font-family="Arial, sans-serif" font-size="10" fill="#333">Design UI</text>
  <rect x="240" y="150" width="140" height="160" rx="8" fill="#f4f5f7"/>
  <rect x="245" y="155" width="130" height="25" rx="4" fill="#ddd"/>
  <text x="310" y="170" text-anchor="middle" font-family="Arial, sans-serif" font-size="12" font-weight="bold" fill="#333">In Progress</text>
  <rect x="250" y="185" width="120" height="30" rx="4" fill="#fff2cc" stroke="#ffd54f"/>
  <text x="310" y="203" text-anchor="middle" font-family="Arial, sans-serif" font-size="10" fill="#333">API Development</text>
  <rect x="400" y="150" width="140" height="160" rx="8" fill="#f4f5f7"/>
  <rect x="405" y="155" width="130" height="25" rx="4" fill="#ddd"/>
  <text x="470" y="170" text-anchor="middle" font-family="Arial, sans-serif" font-size="12" font-weight="bold" fill="#333">Done</text>
  <rect x="410" y="185" width="120" height="30" rx="4" fill="#c8e6c9" stroke="#4caf50"/>
  <text x="470" y="203" text-anchor="middle" font-family="Arial, sans-serif" font-size="10" fill="#333">User Authentication</text>
  <circle cx="90" cy="340" r="6" fill="#00d4aa"/>
  <text x="110" y="345" font-family="Arial, sans-serif" font-size="11" fill="#333">Next.js • Prisma • TypeScript</text>
</svg>