<svg width="600" height="400" viewBox="0 0 600 400" xmlns="http://www.w3.org/2000/svg">
  <defs>
    <linearGradient id="weatherGrad" x1="0%" y1="0%" x2="100%" y2="100%">
      <stop offset="0%" style="stop-color:#74b9ff;stop-opacity:1" />
      <stop offset="100%" style="stop-color:#0984e3;stop-opacity:1" />
    </linearGradient>
  </defs>
  <rect width="600" height="400" fill="url(#weatherGrad)"/>
  <circle cx="150" cy="120" r="25" fill="#ffd700"/>
  <path d="M125 95 L175 95 M125 145 L175 145 M100 120 L200 120 M135 105 L165 135 M165 105 L135 135" stroke="#ffd700" stroke-width="3"/>
  <ellipse cx="450" cy="130" rx="30" ry="20" fill="white" opacity="0.8"/>
  <ellipse cx="470" cy="125" rx="25" ry="15" fill="white" opacity="0.9"/>
  <ellipse cx="430" cy="135" rx="20" ry="12" fill="white" opacity="0.7"/>
  <rect x="100" y="200" width="400" height="150" rx="15" fill="white" opacity="0.9"/>
  <text x="300" y="230" text-anchor="middle" font-family="Arial, sans-serif" font-size="16" font-weight="bold" fill="#333">Cairo, Egypt</text>
  <text x="300" y="260" text-anchor="middle" font-family="Arial, sans-serif" font-size="36" font-weight="bold" fill="#0984e3">28°C</text>
  <text x="300" y="285" text-anchor="middle" font-family="Arial, sans-serif" font-size="14" fill="#666">Sunny</text>
  <rect x="120" y="300" width="80" height="30" rx="5" fill="#e3f2fd"/>
  <text x="160" y="320" text-anchor="middle" font-family="Arial, sans-serif" font-size="10" fill="#1976d2">Humidity: 65%</text>
  <rect x="220" y="300" width="80" height="30" rx="5" fill="#e8f5e8"/>
  <text x="260" y="320" text-anchor="middle" font-family="Arial, sans-serif" font-size="10" fill="#388e3c">Wind: 12 km/h</text>
  <rect x="320" y="300" width="80" height="30" rx="5" fill="#fff3e0"/>
  <text x="360" y="320" text-anchor="middle" font-family="Arial, sans-serif" font-size="10" fill="#f57c00">UV Index: 6</text>
  <circle cx="120" cy="370" r="6" fill="#ff6b6b"/>
  <text x="140" y="375" font-family="Arial, sans-serif" font-size="11" fill="#333">JavaScript • Weather API • CSS3</text>
</svg>